<svg width="27" height="28" viewBox="0 0 27 28" fill="none" xmlns="http://www.w3.org/2000/svg">
<path d="M13.5 15.5V7.5M9.5 11.5H17.5M10.7 23.1L12.6467 25.6956C12.9361 26.0816 13.0809 26.2745 13.2584 26.3436C13.4137 26.404 13.5863 26.404 13.7416 26.3436C13.9191 26.2745 14.0639 26.0816 14.3533 25.6956L16.3 23.1C16.6908 22.5788 16.8863 22.3183 17.1247 22.1193C17.4425 21.8541 17.8177 21.6664 18.2207 21.5713C18.5228 21.5 18.8485 21.5 19.5 21.5C21.3637 21.5 22.2956 21.5 23.0308 21.1955C24.0108 20.7896 24.7896 20.0108 25.1955 19.0308C25.5 18.2956 25.5 17.3637 25.5 15.5V7.9C25.5 5.65979 25.5 4.53968 25.064 3.68404C24.6805 2.93139 24.0687 2.31947 23.316 1.93597C22.4603 1.5 21.3403 1.5 19.1 1.5H7.9C5.65979 1.5 4.53968 1.5 3.68404 1.93597C2.93139 2.31947 2.31947 2.93139 1.93597 3.68404C1.5 4.53968 1.5 5.65979 1.5 7.9V15.5C1.5 17.3637 1.5 18.2956 1.80448 19.0308C2.21045 20.0108 2.98916 20.7896 3.96927 21.1955C4.70435 21.5 5.63624 21.5 7.5 21.5C8.15144 21.5 8.47716 21.5 8.77935 21.5713C9.18225 21.6664 9.55749 21.8541 9.87533 22.1193C10.1137 22.3183 10.3091 22.5788 10.7 23.1Z" stroke="black" stroke-width="2" stroke-linecap="round" stroke-linejoin="round"/>
</svg>
