<svg width="26" height="28" viewBox="0 0 26 28" fill="none" xmlns="http://www.w3.org/2000/svg">
<path d="M1 12.5868C1 11.8209 1 11.438 1.09871 11.0854C1.18613 10.773 1.32983 10.4793 1.52271 10.2185C1.74045 9.92408 2.04269 9.689 2.64719 9.21883L11.6903 2.18533C12.1587 1.821 12.3929 1.63883 12.6516 1.5688C12.8797 1.50701 13.1203 1.50701 13.3484 1.5688C13.6071 1.63883 13.8413 1.821 14.3097 2.18533L23.3528 9.21884C23.9573 9.689 24.2596 9.92408 24.4773 10.2185C24.6701 10.4793 24.8139 10.773 24.9013 11.0854C25 11.438 25 11.8209 25 12.5868V22.2333C25 23.7268 25 24.4735 24.7093 25.044C24.4537 25.5457 24.0457 25.9537 23.544 26.2093C22.9736 26.5 22.2268 26.5 20.7333 26.5H5.26667C3.77319 26.5 3.02645 26.5 2.45603 26.2093C1.95425 25.9537 1.54631 25.5457 1.29065 25.044C1 24.4735 1 23.7268 1 22.2333V12.5868Z" stroke="black" stroke-width="2" stroke-linecap="round" stroke-linejoin="round"/>
</svg>
