<svg width="25" height="27" viewBox="0 0 25 27" fill="none" xmlns="http://www.w3.org/2000/svg">
<path d="M23.1666 25.5C23.1666 23.6392 23.1666 22.7089 22.937 21.9519C22.42 20.2473 21.086 18.9133 19.3814 18.3963C18.6244 18.1667 17.6941 18.1667 15.8333 18.1667H9.16665C7.3059 18.1667 6.37551 18.1667 5.61846 18.3963C3.91391 18.9133 2.58003 20.2473 2.06297 21.9519C1.83331 22.7089 1.83331 23.6392 1.83331 25.5M18.5 7.5C18.5 10.8137 15.8137 13.5 12.5 13.5C9.18627 13.5 6.49998 10.8137 6.49998 7.5C6.49998 4.18629 9.18627 1.5 12.5 1.5C15.8137 1.5 18.5 4.18629 18.5 7.5Z" stroke="#2D316F" stroke-width="2" stroke-linecap="round" stroke-linejoin="round"/>
</svg>
